<?xml version="1.0" encoding="UTF-8"?>
<svg xmlns="http://www.w3.org/2000/svg" viewBox="0 0 205.11 282.74">
  <defs>
    <style>
      .cls-1, .cls-2, .cls-3, .cls-4, .cls-5, .cls-6, .cls-7, .cls-8, .cls-9, .cls-10, .cls-11, .cls-12, .cls-13 {
        stroke: #000;
        stroke-miterlimit: 10;
      }

      .cls-1, .cls-5, .cls-9 {
        fill: none;
      }

      .cls-1, .cls-13 {
        stroke-width: 4px;
      }

      .cls-14, .cls-10 {
        fill: #fff;
      }

      .cls-2 {
        fill: #b7b3b3;
        stroke-width: 2px;
      }

      .cls-3 {
        fill: #487c0d;
      }

      .cls-3, .cls-6, .cls-7, .cls-9, .cls-11, .cls-12 {
        stroke-width: 5px;
      }

      .cls-4, .cls-15 {
        fill: #1ab900;
      }

      .cls-6 {
        fill: #2f5309;
      }

      .cls-16 {
        fill: #e03d3d;
      }

      .cls-7 {
        fill: #2d7725;
      }

      .cls-8, .cls-17 {
        fill: #0092d0;
      }

      .cls-11 {
        fill: #7eac0c;
      }

      .cls-12 {
        fill: #378e25;
      }
    </style>
  </defs>
  <g id="Layer_2" data-name="Layer 2">
    <g id="orginal">
      <rect class="cls-11" x="27.47" y="130.09" width="174.41" height="149.72" transform="translate(229.36 409.91) rotate(-180)"/>
      <path class="cls-7" d="m23.8,279.28c-4.72-3.33-9.04-6.96-13.47-10.64-2.57-2.13-4.76-4.72-7.44-6.65v-131.62h24.64v149.72h-2.8c-.26-.29-.57-.56-.92-.81Z"/>
      <path class="cls-9" d="m2.88,261.82c0-51.46,0-102.46,0-153.46,62,0,123,0,185.21,0"/>
      <path class="cls-9" d="m201.88,130.09c-66,.27-133,.27-199,.27,0-4.7.08,0,0,0,1-7-2-15,1-22,61,0,123,0,184,0,6,6,9,15,14,22,0,50,0,99,0,149-59,1-118,1-176.85.69"/>
      <path class="cls-6" d="m23.8,279.28c-4.72-3.33-9.04-6.96-13.47-10.64-2.57-2.13-4.76-4.72-7.44-6.65V110.36s24.59,21.47,24.59,21.47v148.26s-2.73.03-2.73.03c-.27-.3-.58-.59-.95-.85Z"/>
      <line class="cls-12" x1="27.47" y1="280.09" x2="2.88" y2="260.82"/>
      <polyline class="cls-3" points="3.88 108.36 187.88 108.36 200.59 128.44 27.47 130.09 5.88 110.36"/>
    </g>
    <path class="cls-1" d="m52.18,187.26c2.82-7.82,9.29-13.65,17-15,10.07-1.77,20.74,4.34,25,15"/>
    <path class="cls-1" d="m132.21,185.14c2.82-7.82,9.29-13.65,17-15,10.07-1.77,20.74,4.34,25,15"/>
    <path class="cls-13" d="m88.18,227.33c1.43-6.05,52.38-2.35,52.99,3.98.31,3.17-12.01,7.46-22,7.95-16.45.81-31.83-8.41-31-11.93Z"/>
    <path class="cls-16" d="m101.52,238.06c4.01,2.3,8.62,3.53,13.25,3.53,4.09,0,8.11-.96,12.09-1.9"/>
  </g>
  <g id="Layer_3" data-name="Layer 3">
    <g>
      <polyline class="cls-2" points="109.21 28.85 108.68 31.55 108.68 33.26"/>
      <line class="cls-2" x1="120.96" y1="25.01" x2="120.68" y2="28.55"/>
      <polyline class="cls-2" points="128.95 29.41 128.68 30.55 127.94 31.58"/>
      <path class="cls-2" d="m111.6,29.03c-3.03,9.75-18.45,11.87-24.4,21.94-3.81,6.45-.5,7.11-2.13,23.77-.29,3-1.12,6.47-3,10.76-4.05,9.23-8.87,12.9-6.34,19.04,2.74,6.65,11.9,10.82,19.33,13.32l24.84,5.22,9.11,1.92c3.09-1.45,16.33-11.61,17.94-15.59,2.78-6.87-1.01-10.67-3.59-20.63-4.86-18.74,3.83-23.62-1.03-37.71-2.08-6.04-6.82-14.29-18.84-22.94l-2.76.14-12.27.63c-10.94-11.34-12.01-15.62-10.14-17.14,1.96-1.6,7.94-.8,11.09,1.39,3.34,2.33,3.2,6.04,3.03,10.52-.08,2.09-.44,4.09-.84,5.36Z"/>
      <path class="cls-2" d="m120.68,26.55h0c.34-2.31,1.25-6.19,4-10,3.7-5.13,10.19-9.4,12-8,1.37,1.05.68,5.8-8.04,21.72"/>
      <polyline class="cls-2" points="108.97 28.65 116.51 28.01 119.67 27.75 119.94 23.92 126.85 7.35 123.72 1.88 119.94 7.35 119.78 4.26 106.18 4.26 112 26.01"/>
    </g>
  </g>
  <g id="Layer_4" data-name="Layer 4">
    <g>
      <g>
        <g>
          <line class="cls-15" x1="134.57" y1="65.19" x2="122.98" y2="72.75"/>
          <line class="cls-15" x1="129.06" y1="82.47" x2="122.98" y2="72.75"/>
          <path class="cls-4" d="m134.57,65.19l5.53,10.26c.14.44.25,1.04.18,1.73-.21,2.04-1.94,3.26-2.45,3.62-1.15.82-2.36,1.05-4.73,1.48-1.55.28-2.86.41-3.79.47"/>
          <line class="cls-4" x1="123.04" y1="72.37" x2="129.32" y2="82.75"/>
          <line class="cls-4" x1="134.62" y1="65.36" x2="122.93" y2="72.58"/>
        </g>
        <g>
          <path class="cls-4" d="m140.09,81.44l-7.06,13.47c-.16.37-.45.92-1,1.38-.96.82-2.12.88-2.93.92-2.03.09-4.33.16-6.91.19"/>
          <line class="cls-4" x1="122.21" y1="101.51" x2="122.29" y2="97.19"/>
          <line class="cls-4" x1="115.39" y1="91.12" x2="122.1" y2="101.72"/>
          <line class="cls-4" x1="121.1" y1="80.75" x2="115.39" y2="91.12"/>
          <line class="cls-4" x1="121.79" y1="84.12" x2="121.1" y2="80.75"/>
          <path class="cls-4" d="m140.09,81.44l-2.84,1.78c-.94.38-2.23.8-3.8,1.01-1.4.18-2.62.14-3.56.04"/>
          <line class="cls-4" x1="121.79" y1="84.12" x2="129.88" y2="84.27"/>
        </g>
      </g>
      <g>
        <g>
          <line class="cls-17" x1="115.33" y1="96.91" x2="113.46" y2="83.2"/>
          <line class="cls-17" x1="102.07" y1="84.53" x2="113.46" y2="83.2"/>
          <path class="cls-8" d="m115.33,96.91l-11.64.61c-.46-.06-1.05-.22-1.64-.58-1.76-1.06-2.12-3.15-2.23-3.76-.25-1.39.06-2.58.69-4.9.41-1.52.86-2.76,1.2-3.62"/>
          <line class="cls-8" x1="113.78" y1="83.42" x2="101.71" y2="84.66"/>
          <line class="cls-8" x1="115.16" y1="96.89" x2="113.63" y2="83.23"/>
        </g>
        <g>
          <path class="cls-8" d="m98.28,94.95l-9.15-12.15c-.27-.31-.64-.81-.82-1.49-.33-1.22.11-2.29.43-3.04.79-1.87,1.7-3.99,2.79-6.33"/>
          <line class="cls-8" x1="87.79" y1="70.2" x2="91.66" y2="72.13"/>
          <line class="cls-8" x1="100.1" y1="68.48" x2="87.65" y2="70.01"/>
          <line class="cls-8" x1="107.03" y1="78.08" x2="100.1" y2="68.48"/>
          <line class="cls-8" x1="103.69" y1="77.26" x2="107.03" y2="78.08"/>
          <path class="cls-8" d="m98.28,94.95l-.39-3.33c.05-1.01.23-2.36.72-3.86.44-1.35,1-2.43,1.49-3.24"/>
          <line class="cls-8" x1="103.69" y1="77.26" x2="100.09" y2="84.51"/>
        </g>
      </g>
    </g>
    <g>
      <path class="cls-10" d="m107.18,51.76h15.21c.41-.03,1.03-.03,1.69.24,1.17.47,1.76,1.47,2.17,2.17,1.02,1.76,2.16,3.76,3.38,6.04"/>
      <line class="cls-5" x1="133.25" y1="58.28" x2="129.39" y2="60.21"/>
      <line class="cls-5" x1="127.21" y1="69.14" x2="133.49" y2="58.28"/>
      <line class="cls-5" x1="115.38" y1="68.9" x2="127.21" y2="69.14"/>
      <line class="cls-5" x1="118.04" y1="66.73" x2="115.38" y2="68.9"/>
      <path class="cls-10" d="m107.18,51.76l2.9,1.69c.78.65,1.74,1.6,2.66,2.9.81,1.16,1.34,2.26,1.69,3.14"/>
      <line class="cls-10" x1="118.04" y1="66.73" x2="114.42" y2="59.48"/>
      <g>
        <line class="cls-14" x1="95.35" y1="64.19" x2="107.42" y2="70.95"/>
        <line class="cls-14" x1="113.21" y1="61.05" x2="107.42" y2="70.95"/>
        <path class="cls-10" d="m95.35,64.19l6.52-9.66c.33-.33.8-.71,1.45-.97,1.91-.76,3.79.2,4.35.48,1.26.64,2.02,1.6,3.5,3.5.97,1.25,1.69,2.35,2.17,3.14"/>
        <line class="cls-10" x1="107.06" y1="71.07" x2="113.33" y2="60.69"/>
        <line class="cls-10" x1="95.47" y1="64.07" x2="107.3" y2="71.07"/>
      </g>
    </g>
  </g>
</svg>