<?xml version="1.0" encoding="UTF-8"?>
<svg id="Layer_1" data-name="Layer 1" xmlns="http://www.w3.org/2000/svg" viewBox="0 0 48.6 31.61">
  <defs>
    <style>
      .cls-1 {
        fill: #98d1a2;
      }

      .cls-1, .cls-2 {
        stroke: #010101;
        stroke-miterlimit: 10;
        stroke-width: .5px;
      }

      .cls-2 {
        fill: #d9a6a9;
      }

      .cls-3 {
        fill: #010101;
      }
    </style>
  </defs>
  <g id="hoved_logo" data-name="hoved logo">
    <g>
      <path class="cls-3" d="M1.3,23.92c-.54,.21-1.06,.5-.97,1.29,.08,.65,.58,.83,1.02,.78,.58-.06,.83-.47,1.12-1.21,.41-1.07,.75-1.55,1.55-1.64,.89-.1,1.64,.59,1.76,1.68,.05,.51-.04,.96-.13,1.32-.23,.09-.79,.26-1.24,.37l-.09-.25c.55-.23,1.23-.69,1.14-1.56-.07-.61-.53-.93-1.08-.87-.65,.07-.87,.45-1.19,1.23-.38,.94-.73,1.48-1.51,1.56-.75,.08-1.53-.46-1.65-1.57-.05-.47,.02-.95,.04-1.13,.3-.07,.63-.14,1.17-.27l.07,.27Z"/>
      <path class="cls-3" d="M5.65,20.2l-.24-.02c0-.49-.05-.55-.62-.61l-1.39-.15c-.59-.06-1.01,.11-1.07,.66-.04,.35,.13,.69,.34,.98l1.97,.21c.58,.06,.6,.02,.71-.48l.24,.02-.19,1.82-.24-.02c0-.56-.03-.62-.59-.68l-1.73-.18c-.55-.06-.58,0-.7,.45l-.22-.02c-.02-.42-.09-.85-.22-1.22,.19,.02,.46,.05,.66,.07-.1-.18-.21-.38-.32-.62-.12-.25-.21-.49-.18-.72,.07-.68,.62-1.04,1.43-.96l1.6,.17c.57,.06,.6,.02,.71-.47l.24,.02-.19,1.75Z"/>
      <path class="cls-3" d="M7.07,14.31c-.08,.4-.12,.87-.15,1.32-.13-.05-.42-.15-.62-.22,.21,.55,.35,1,.19,1.44-.18,.54-.68,.89-1.55,.59l-1.56-.54c-.43-.15-.5-.1-.61,.08l-.12,.21-.21-.07c.1-.35,.21-.91,.25-1.19,.25,.12,.63,.25,1.16,.43l1.09,.38c.7,.25,1.03-.05,1.16-.42,.1-.29,.08-.64-.08-1l-1.86-.65c-.43-.15-.52-.08-.65,.18l-.12,.25-.21-.07c.15-.52,.26-1.11,.29-1.31l2.68,.93c.4,.14,.48,.09,.6-.2l.08-.22,.22,.07Z"/>
      <path class="cls-3" d="M8.37,12.58l-.98,1.69-.21-.12c.22-.49,.22-.55-.26-.83l-1.53-.89c-.49-.28-.52-.26-.82,.13l-.18-.11c.15-.39,.25-.77,.3-1.21,.24,.14,.56,.33,.81,.47-.23-.48-.45-1.02-.25-1.39,.15-.27,.42-.32,.6-.22,.17,.1,.26,.31,.26,.49,0,.1-.04,.15-.12,.18-.18,.05-.3,.09-.38,.22-.09,.15-.02,.55,.26,.93l1.38,.8c.49,.28,.54,.26,.92-.27l.19,.12Z"/>
      <path class="cls-3" d="M10.13,10.21l-1.23,1.51-.18-.15c.3-.45,.3-.51-.13-.86l-1.36-1.11c-.43-.35-.48-.34-.83,0l-.16-.13c.21-.36,.37-.72,.49-1.15,.22,.18,.51,.41,.72,.59-.15-.51-.29-1.08-.02-1.41,.2-.25,.46-.25,.62-.12,.15,.12,.21,.35,.18,.52-.02,.1-.06,.15-.15,.16-.18,.02-.31,.05-.41,.16-.12,.14-.11,.55,.11,.96l1.23,1.01c.43,.35,.49,.35,.95-.12l.19,.15Z"/>
      <path class="cls-3" d="M11.09,2.15c1.02-.63,1.78-.83,2.49-.69,.57,.12,1.14,.47,1.57,1.16,.52,.84,.61,1.74,.32,2.5-.29,.75-.89,1.35-1.77,1.89l-1.69,1.05-.12-.2c.59-.45,.58-.51,.22-1.1l-1.79-2.87c-.39-.62-.49-.59-1.09-.3l-.12-.2,2-1.24Zm1.59,4.18c.34,.54,.66,.55,1.2,.21,1.29-.81,1.4-2.1,.62-3.37-.49-.79-1.12-1.22-1.91-1.21-.46,0-.92,.18-1.41,.48-.32,.2-.47,.35-.51,.45-.04,.08-.02,.18,.16,.46l1.85,2.97Z"/>
      <path class="cls-3" d="M19.72,4.4c-.12,.04-.32,.03-.43-.03-.14-.07-.22-.17-.31-.3-.25,.32-.55,.75-.81,.82-.57,.18-1.13-.16-1.3-.69-.12-.39,0-.72,.41-1.02,.44-.32,.98-.72,1.11-.92l-.05-.16c-.18-.57-.58-.82-.99-.68-.18,.06-.27,.18-.32,.31-.05,.14-.05,.34-.05,.59,0,.14-.05,.22-.18,.26-.15,.05-.41-.05-.47-.25-.04-.12,.04-.25,.16-.41,.18-.25,.55-.69,.99-.93,.24-.08,.52-.08,.75,0,.36,.15,.58,.39,.71,.81l.49,1.56c.12,.37,.29,.44,.44,.39,.1-.03,.19-.11,.26-.18l.15,.2-.55,.62Zm-1.23-1.86c-.15,.15-.49,.44-.65,.58-.26,.23-.4,.45-.31,.75,.14,.43,.52,.52,.78,.44,.21-.07,.46-.29,.57-.5-.12-.39-.27-.89-.39-1.26Z"/>
      <path class="cls-3" d="M22.88,3.82l-.02-.24c.49-.1,.53-.16,.48-.73l-.13-1.39c-.05-.59-.31-.97-.86-.92-.35,.03-.65,.27-.89,.53l.18,1.97c.05,.59,.11,.59,.61,.6l.02,.24-1.83,.17-.02-.24c.55-.12,.6-.15,.55-.71l-.16-1.74c-.05-.55-.12-.57-.58-.6l-.02-.22c.41-.11,.81-.25,1.15-.45,.02,.19,.05,.46,.06,.67,.15-.13,.33-.28,.54-.44,.22-.18,.43-.29,.68-.32,.68-.06,1.15,.39,1.22,1.21l.15,1.6c.05,.58,.11,.59,.6,.6l.02,.24-1.75,.16Z"/>
      <path class="cls-3" d="M27.32,1.24c-.11-.5-.29-.86-.81-.91-.29-.03-.55,.16-.58,.5-.04,.36,.19,.55,.65,.82,.69,.42,1.03,.7,.98,1.26-.08,.78-.82,1.1-1.49,1.04-.44-.04-.82-.22-.98-.33-.02-.25-.05-.72-.05-1l.25-.02c.1,.55,.35,1.02,.95,1.08,.32,.03,.61-.16,.65-.52,.04-.38-.17-.59-.6-.86-.56-.35-1.02-.66-.96-1.27,.06-.62,.62-1.04,1.42-.96,.35,.03,.63,.15,.8,.18,0,.21,.02,.74,.04,.95l-.25,.03Z"/>
      <path class="cls-3" d="M30.96,4.13c-.7,.52-1.31,.49-1.57,.42-1-.27-1.38-1.26-1.12-2.2,.15-.55,.49-1.02,.92-1.29,.45-.29,.96-.39,1.38-.27,.71,.19,1.09,.96,.91,1.61-.05,.16-.1,.23-.24,.22-.17-.02-1.24-.22-2.22-.45-.32,1.09,.22,1.73,.81,1.88,.34,.09,.69,.04,1.06-.16l.07,.23Zm-.68-3.07c-.38-.1-.84,.15-1.13,.78,.45,.12,.92,.25,1.4,.35,.15,.04,.21,.02,.24-.11,.13-.42-.05-.89-.51-1.02Z"/>
      <path class="cls-3" d="M34.24,3.45c.07-.51,.02-.91-.45-1.12-.27-.12-.56-.03-.71,.28-.15,.33,0,.59,.33,.99,.52,.62,.74,1.01,.5,1.52-.33,.71-1.14,.76-1.75,.49-.4-.18-.69-.48-.82-.64,.07-.24,.19-.69,.29-.96l.24,.06c-.09,.55,0,1.08,.53,1.33,.29,.14,.63,.05,.78-.27,.16-.35,.04-.62-.28-1.01-.42-.51-.74-.96-.48-1.52,.26-.56,.94-.77,1.66-.43,.32,.15,.55,.35,.69,.45-.06,.19-.24,.7-.29,.91l-.25-.06Z"/>
      <path class="cls-3" d="M37.09,8.58c-.37-.26-.79-.55-.93-.65,0-.08-.18-2.13-.18-2.2-.02-.18-.04-.25-.1-.29-.03-.02-.08-.06-.13-.08l-.55,.76c-.33,.46-.32,.52,.11,.88l-.14,.19-1.53-1.09,.14-.19c.49,.29,.56,.26,.88-.18l2.35-3.3c.32-.45,.28-.49-.1-.86l.13-.18c.39,.22,.87,.42,1.19,.49-.21,.3-.42,.58-.62,.88l-1.72,2.41c.24,.1,.43,.11,.62,.07,.27-.05,.75-.18,.99-.26,.29-.1,.27-.19-.04-.45l.14-.19,1.46,.95-.13,.18c-.54-.27-.72-.31-1.23-.21-.23,.05-.79,.18-1.06,.25,0,.29,.13,1.59,.19,2,.09,.57,.18,.65,.44,.86l-.16,.19Z"/>
      <path class="cls-3" d="M40.98,7.27c.72,.78,.65,1.9-.15,2.64-1.01,.93-2.18,.62-2.74,0-.79-.86-.58-2.02,.12-2.67,1.02-.92,2.23-.58,2.77,.02Zm-.28,.12c-.35-.38-1.03-.39-1.76,.28-.79,.73-1.05,1.6-.58,2.12,.35,.39,.93,.45,1.79-.33,.73-.67,1.05-1.52,.55-2.06Z"/>
      <path class="cls-3" d="M39.53,11.48l.2-.13c.34,.42,.42,.46,.88,.15l3.4-2.23c.43-.29,.45-.35,.21-.84l.18-.12c.29,.35,.69,.72,.93,.89-.33,.22-.67,.44-1.01,.66l-3.34,2.2c-.47,.31-.48,.37-.22,.86l-.2,.13-1.03-1.58Z"/>
      <path class="cls-3" d="M42.69,15.76c-.85-.21-1.22-.69-1.34-.93-.44-.94,.07-1.86,.96-2.27,.52-.25,1.09-.29,1.58-.12,.51,.15,.91,.49,1.09,.89,.31,.67-.03,1.44-.65,1.73-.15,.06-.24,.07-.32-.04-.1-.14-.63-1.09-1.09-2-1.04,.45-1.17,1.29-.92,1.83,.15,.32,.42,.55,.81,.71l-.12,.21Zm1.91-2.49c-.16-.35-.65-.55-1.32-.36,.2,.43,.4,.86,.63,1.3,.06,.14,.12,.17,.24,.12,.41-.18,.65-.62,.45-1.06Z"/>
      <path class="cls-3" d="M43.07,20.99l.24-.03c.13,.54,.22,.59,.53,.44,.32-.15,.72-.37,1.22-.61l-.22-1.82c-.39-.09-.74-.18-1.09-.25-.57-.12-.62,0-.62,.71l-.24,.03-.23-1.94,.24-.03c.13,.52,.21,.65,.99,.86l4.62,1.22,.08,.26c-1.38,.7-2.9,1.47-4.29,2.17-.7,.35-.75,.44-.75,1.05l-.24,.03-.25-2.08Zm4.38-1.37c-.75-.18-1.56-.38-2.25-.55l.18,1.57,2.06-1.02Z"/>
      <path class="cls-3" d="M47.05,26.37c.57-.08,1.15-.25,1.23-1.05,.08-.65-.38-.94-.82-.99-.58-.06-.92,.27-1.36,.93-.63,.96-1.07,1.35-1.87,1.26-.89-.1-1.47-.94-1.35-2.03,.05-.51,.25-.92,.42-1.26,.25-.04,.82-.08,1.29-.08l.04,.27c-.59,.11-1.36,.39-1.46,1.27-.07,.61,.31,1.02,.86,1.09,.65,.07,.95-.25,1.43-.94,.58-.83,1.04-1.28,1.82-1.19,.75,.08,1.39,.79,1.26,1.89-.05,.47-.23,.92-.29,1.09-.31,0-.65,0-1.2,0l-.02-.27Z"/>
    </g>
    <circle class="cls-2" cx="29.87" cy="11.4" r="3.58"/>
    <polygon class="cls-1" points="29.87 15.39 11.61 10.53 23.51 26.28 29.87 15.39"/>
    <polygon class="cls-2" points="23.51 26.28 40.21 31.36 22.24 28.01 7.42 29.74 22.24 26.28 23.51 26.28"/>
  </g>
</svg>