<?xml version="1.0" encoding="utf-8"?>
<!-- Generator: Adobe Illustrator 26.5.1, SVG Export Plug-In . SVG Version: 6.00 Build 0)  -->
<svg version="1.1" xmlns="http://www.w3.org/2000/svg" xmlns:xlink="http://www.w3.org/1999/xlink" x="0px" y="0px"
	 viewBox="0 0 220 197" style="enable-background:new 0 0 220 197;" xml:space="preserve">
<style type="text/css">
	.st0{fill:#93278F;stroke:#0071BC;stroke-miterlimit:10;}
	.st1{fill:#1B1464;stroke:#0071BC;stroke-miterlimit:10;}
</style>
<g id="Layer_2">
	<path class="st0" d="M38.48,198c154.34-0.68,177.92-0.79,181.52-0.8c0.65,0,0.65,0,0.65,0L220,0H0v197L38.48,198z"/>
</g>
<g id="Layer_1">
	<g>
		<path class="st1" d="M8.81,198c0.2-0.81,0.23-1.71,0.62-2.4c1.36-2.41,3.18-4.61,4.18-7.15c0.89-2.28,0.93-4.92,2.22-7.4
			c0.36,2.02,0.71,4.05,1.07,6.07c0.11,0,0.23,0,0.34,0c0.11-2.43,0.56-4.91,0.25-7.29c-0.85-6.65,2.18-11.35,7.06-14.85
			c4.08-2.94,8.58-5.29,12.96-7.77c2.97-1.68,6.36-2.75,8.99-4.85c1.63-1.3,3.45-4.31,3.04-6.03c-3-12.67,2.36-23.76,5.57-35.29
			c1.28-4.61,2.25-9.33,3.14-14.05c2.38-12.74,3.85-25.73,7.13-38.21c5.42-20.63,18.97-34.41,37.91-42.69
			c3.32-1.45,6.83-1.71,10.22,0.63c1.18,0.81,3,1.04,4.48,0.91c4.96-0.41,9.28,0.96,13.07,4.24c16.24,14.07,24.28,32.47,26.73,53.77
			c1.07,9.25,1.27,18.66,3.08,27.74c1.13,5.66,3.56,11.68,7.12,16.06c7.53,9.26,9.73,19.36,7.24,30.66
			c-0.89,4.02,0.11,5.36,3.56,6.97c6.15,2.89,11.99,6.39,15.4,13.05c4.83,9.41,10.05,18.6,15.11,27.88
			C142.47,198,75.64,198,8.81,198z M82.2,155.41c3.8,2.03,8.46,4.62,13.23,6.98c1.06,0.52,2.55,0.45,3.78,0.25
			c4.47-0.73,8.98-1.42,13.36-2.56c2.6-0.68,5.29-1.78,7.41-3.42c4.21-3.25,5.64-10.37,2.51-13.14c-2.9-2.57-2.12-4.33-1.19-7.54
			c0.99-3.44,2.15-5.45,5.36-6.79c2.75-1.15,5.61-2.67,7.69-4.78c11.69-11.89,13.07-26.97,11.43-42.6
			c-1.05-10.02-7.42-14.57-17.34-13.69c-2.66,0.24-5.35,0.04-8.15,0.04c1.23-5.13,10.44-7.12,20.58-4.7
			c-0.97-8.62-1.63-16.9-7.95-23.53c-8.69-9.12-19.34-10.54-30.67-8.3c-12.43,2.46-19.61,10.81-23.52,23.04
			c-5.38,16.83-5.15,33.82-1.88,50.77c1.96,10.15,6.7,19.72,6.21,30.43C82.75,142.03,82.51,148.2,82.2,155.41z"/>
		<path class="st1" d="M109.64,114.46c3.45-0.78,6.9-1.57,10.35-2.35c-0.03-0.38-0.05-0.76-0.08-1.14c-2.25-0.79-4.5-1.58-7.42-2.61
			c4.94-2.34,10.28-1.15,14.9,3.1c-3.6,2.79-7.06,5.47-11.34,8.8c-0.15-2.48-0.21-3.51-0.27-4.54c-2.14-0.21-4.17-0.42-6.2-0.62
			C109.6,114.87,109.62,114.67,109.64,114.46z"/>
		<path class="st1" d="M105.76,66.17c-6.59,0-12.38,0-18.83,0C91.1,61.45,99.12,61.59,105.76,66.17z"/>
		<path class="st1" d="M121.95,78.31c3.45-5.35,10.99-5.63,18.68,0C133.9,78.31,128.09,78.31,121.95,78.31z"/>
		<path class="st1" d="M102.53,78.14c-5.42-0.81-10.24-1.54-15.28-2.29C92.84,71.19,99.01,71.87,102.53,78.14z"/>
	</g>
</g>
</svg>
